<?xml version="1.0" encoding="utf-8"?>
<!-- Generator: Adobe Illustrator 22.0.1, SVG Export Plug-In . SVG Version: 6.00 Build 0)  -->
<svg version="1.1" id="Layer_1" xmlns="http://www.w3.org/2000/svg" xmlns:xlink="http://www.w3.org/1999/xlink" x="0px" y="0px"
	 viewBox="0 0 192 192" style="enable-background:new 0 0 192 192;" xml:space="preserve" width="150" height="150">
<style type="text/css">
	.st0{fill:#FFFFFF;}
</style>
<title>dsc_icon</title>
<g>
	<g>
		<g>
			<path class="st0" d="M77.3,113.5L24.5,83.1c-2.4-1.4-4.9-2-7.5-2c-5.2,0-10.2,2.7-13,7.5c-4.1,7.2-1.7,16.4,5.5,20.5l52.8,30.4
				c2.4,1.4,4.9,2,7.5,2c5.2,0,10.2-2.7,13-7.5C86.9,126.9,84.5,117.7,77.3,113.5z"/>
			<path class="st0" d="M182.5,83.1l-52.8-30.5c-2.4-1.4-4.9-2-7.5-2c-5.2,0-10.2,2.7-13,7.5c-4.2,7.2-1.7,16.4,5.5,20.5l52.8,30.5
				c2.4,1.4,4.9,2,7.5,2c5.2,0,10.2-2.7,13-7.5C192.1,96.4,189.7,87.2,182.5,83.1z"/>
			<g>
				<path class="st0" d="M165.4,112.7l-24.6-14.2l-26,15c-7.2,4.2-9.6,13.3-5.5,20.5c2.8,4.8,7.8,7.5,13,7.5c2.6,0,5.1-0.7,7.5-2
					l42.4-24.5C169.8,114.7,167.5,113.9,165.4,112.7z"/>
			</g>
			<g>
				<path class="st0" d="M26.6,79.4l24.6,14.2l26-15.1c7.2-4.2,9.6-13.3,5.5-20.5c-4.2-7.2-13.3-9.6-20.5-5.5L19.9,77.1
					C22.2,77.5,24.5,78.2,26.6,79.4z"/>
			</g>
		</g>
	</g>
</g>
</svg>
