<?xml version="1.0" encoding="utf-8"?>
<!-- Generator: Adobe Illustrator 22.0.1, SVG Export Plug-In . SVG Version: 6.00 Build 0)  -->
<svg version="1.1" id="Layer_1" xmlns="http://www.w3.org/2000/svg" xmlns:xlink="http://www.w3.org/1999/xlink" x="0px" y="0px"
	 viewBox="0 0 264 192" style="enable-background:new 0 0 264 192;" xml:space="preserve">
<style type="text/css">
	.st0{fill:#676C72;}
</style>
<title>dsc_logotype</title>
<path class="st0" d="M0,45h30.8c10.5,0,19.6,2.2,27.4,6.5c7.6,4.1,13.9,10.4,18,18c4.2,7.7,6.3,16.5,6.3,26.5s-2.1,18.8-6.3,26.5
	c-4.1,7.6-10.4,13.9-18,18c-7.8,4.3-16.9,6.5-27.4,6.5H0V45z M30.8,135.5c12.1,0,21.6-3.5,28.7-10.4S70.2,108.5,70.2,96
	c0-12.5-3.5-22.1-10.6-29.1C52.4,60,42.9,56.5,30.8,56.5H12v79H30.8z"/>
<path class="st0" d="M103.6,142.1c-6.7-4.9-11.2-11.6-13.7-20.4l11.6-4.7c1.4,5.8,4.6,11,9,15c4.2,3.8,9.7,5.9,15.4,5.8
	c5.4,0.2,10.7-1.5,15-4.8c4-3.1,6.3-8,6.1-13.1c0.1-4.5-1.8-8.8-5.2-11.8c-3.5-3.1-9.2-6-17.1-8.6l-6.4-2.3
	c-6.5-2.2-12.5-5.6-17.7-10.1c-4.6-4.2-6.8-10-6.8-17.4c0-4.8,1.4-9.5,4-13.5c2.8-4.2,6.6-7.6,11.1-9.9c9.9-4.8,21.4-4.9,31.4-0.4
	c4,1.9,7.6,4.6,10.5,8c2.4,2.7,4.2,5.9,5.5,9.3l-11.4,4.9c-1.1-3.8-3.4-7.1-6.5-9.6c-3.4-2.8-7.8-4.3-13.3-4.3
	c-4.8-0.1-9.6,1.4-13.4,4.4c-3.5,2.6-5.6,6.7-5.6,11.1c-0.1,3.8,1.7,7.5,4.7,9.8c3.1,2.5,7.9,4.9,14.3,7.1l6.7,2.3
	c8.6,3.2,15.4,7.1,20.2,11.7c4.8,4.7,7.3,11.1,7.3,19.2c0,6.6-1.7,12.1-5.1,16.5c-3.3,4.4-7.7,7.8-12.8,9.8
	c-5,2.1-10.4,3.1-15.8,3.1C117.6,149.4,109.9,146.8,103.6,142.1z"/>
<path class="st0" d="M196.7,142.3c-8-4.5-14.5-11.2-19-19.2c-4.7-8.3-7.1-17.6-7-27.2c-0.1-9.5,2.3-18.9,6.9-27.2
	c4.5-8,11.1-14.6,19.1-19.2c8.2-4.7,17.5-7.1,27-7c7.2-0.1,14.3,1.4,20.9,4.3c6.3,2.9,11.9,7.1,16.4,12.3l-8.7,8.4
	c-3.5-4.3-7.8-7.8-12.8-10.3c-5-2.3-10.4-3.4-15.9-3.3c-7.1-0.1-14.2,1.7-20.4,5.2c-6.2,3.5-11.3,8.5-14.8,14.7
	c-3.7,6.7-5.6,14.2-5.5,21.9c-0.2,7.7,1.7,15.2,5.5,21.9c3.5,6.1,8.6,11.2,14.8,14.7c6.2,3.5,13.3,5.3,20.4,5.2
	c12.4,0,22.9-5.1,31.5-15.3l8.8,8.6c-4.8,5.7-10.8,10.2-17.5,13.3C230.5,151.6,212.1,150.9,196.7,142.3z"/>
</svg>
